<svg width="512" height="512" viewBox="0 0 512 512" fill="none" xmlns="http://www.w3.org/2000/svg">
<path d="M306.145 2.64557C298.356 7.6532 287.369 17.9467 280.971 26.5709C271.235 39.3682 265.255 53.9737 260.248 76.5081C259.414 79.9856 258.857 80.2638 249.4 81.2375C210.04 84.8541 178.886 104.189 162.892 134.791C156.633 146.754 154.964 152.04 148.845 179.164C141.891 210.184 137.162 220.756 114.631 256.087C89.4575 295.731 80 323.551 80 358.605C80.1391 409.237 106.286 453.471 152.6 481.291C197.245 508.138 272.487 513.841 329.649 494.784C374.155 479.9 408.508 448.742 423.667 409.515C431.178 390.319 433.681 374.74 432.847 353.18C431.595 319.934 422.833 295.87 397.242 255.809C376.38 222.981 371.095 210.601 362.333 173.74C357.326 152.318 352.041 138.686 344.114 126.306C330.345 105.024 309.343 89.7226 286.534 84.4368C277.633 82.3503 277.355 81.3766 281.945 70.3877C289.316 52.5828 302.807 36.447 319.079 25.7363C332.014 17.2511 332.431 16.5557 328.536 10.8525C324.781 5.28852 317.132 -0.136482 313.099 0.0026188C311.43 0.0026188 308.37 1.25456 306.145 2.64557ZM278.189 102.103C283.614 103.215 293.21 106.693 299.608 109.892C322.973 121.438 336.325 140.216 343.696 171.653C345.643 180.138 348.842 193.214 350.789 200.864C352.736 208.515 354.544 216.026 354.962 217.695C355.518 220.199 354.405 221.173 346.756 224.094C342.027 226.041 332.57 229.38 325.894 231.327L313.655 235.083V353.875C313.655 419.113 313.238 472.945 312.542 473.363C311.986 473.641 309.204 474.336 306.284 474.893L301.138 475.866V236.196L289.038 237.309C273.044 238.7 240.081 238.7 222.975 237.309L209.345 236.057V475.449L203.503 473.641L197.523 471.972L197.106 353.04L196.827 234.109L179.025 228.267C169.29 224.929 160.388 221.729 159.276 221.034C157.607 219.921 157.746 218.53 160.388 210.323C162.057 205.176 164.7 194.605 166.23 186.954C172.767 154.822 178.608 140.634 190.986 127.558C211.292 105.719 246.618 95.4258 278.189 102.103ZM174.853 262.764C180.416 264.433 186.118 266.102 187.509 266.381C189.734 267.076 189.873 273.057 189.873 367.924C189.873 449.437 189.595 468.633 188.065 468.633C187.092 468.633 180.833 465.851 174.157 462.513C140.222 445.542 117.691 416.192 110.041 379.331C107.538 367.09 107.121 341.634 109.207 328.141C112.545 307.554 123.532 280.013 136.884 259.008L142.447 250.384L153.574 255.113C159.693 257.756 169.29 261.095 174.853 262.764ZM376.519 260.956C398.633 297.261 405.865 320.769 405.865 355.266C405.865 378.496 403.501 390.459 395.712 407.29C387.646 424.399 371.373 443.456 355.101 454.445C347.73 459.453 326.589 470.024 323.808 470.024C322.278 470.024 322 451.107 322 368.759V267.493L335.908 262.903C343.696 260.399 354.127 256.644 359.273 254.418C364.419 252.192 368.87 250.384 369.287 250.384C369.704 250.245 372.903 255.114 376.519 260.956ZM260.804 274.449C275.686 274.449 289.316 273.892 291.124 273.336L294.184 272.362L293.906 375.018L293.488 477.675L280.276 479.483C267.341 481.152 238.83 480.735 224.644 478.648L218.385 477.675L217.968 375.018L217.689 272.362L225.617 273.336C230.068 273.892 245.923 274.449 260.804 274.449Z" fill="#389E0D"/>
<path d="M139.248 4.87118C128.261 6.95769 111.988 12.2435 111.988 13.4954C111.988 16.5557 130.208 45.3496 136.745 52.5828C154.13 72.196 180.694 83.4632 205.033 81.5158C214.491 80.8203 235.77 75.2562 235.77 73.4479C235.77 72.8915 232.015 68.9967 227.286 64.8237C218.524 56.8949 195.437 44.2367 170.819 33.9433C163.726 31.0222 158.163 28.2402 158.441 27.962C158.859 27.6838 164.144 28.5183 170.402 29.7703C199.748 35.7516 227.147 49.5226 247.592 68.5794C252.042 72.8915 256.354 76.369 256.91 76.369C257.466 76.369 257.606 74.2825 257.049 71.7787C250.93 40.2028 223.253 12.6608 189.873 4.87118C178.747 2.22826 152.461 2.22826 139.248 4.87118Z" fill="#389E0D"/>
</svg>
