<svg width="353" height="506" viewBox="0 0 353 506" fill="none" xmlns="http://www.w3.org/2000/svg">
<path d="M226.145 2.64557C218.356 7.6532 207.369 17.9467 200.971 26.5709C191.235 39.3682 185.255 53.9737 180.248 76.5081C179.414 79.9856 178.857 80.2638 169.4 81.2375C130.04 84.8541 98.8861 104.189 82.8918 134.791C76.6332 146.754 74.9643 152.04 68.8447 179.164C61.8907 210.184 57.162 220.756 34.631 256.087C9.45749 295.731 0 323.551 0 358.605C0.13908 409.237 26.2862 453.471 72.5999 481.291C117.245 508.138 192.487 513.841 249.649 494.784C294.155 479.9 328.508 448.742 343.667 409.515C351.178 390.319 353.681 374.74 352.847 353.18C351.595 319.934 342.833 295.87 317.242 255.809C296.38 222.981 291.095 210.601 282.333 173.74C277.326 152.318 272.041 138.686 264.114 126.306C250.345 105.024 229.343 89.7226 206.534 84.4368C197.633 82.3503 197.355 81.3766 201.945 70.3877C209.316 52.5828 222.807 36.447 239.079 25.7363C252.014 17.2511 252.431 16.5557 248.536 10.8525C244.781 5.28852 237.132 -0.136482 233.099 0.0026188C231.43 0.0026188 228.37 1.25456 226.145 2.64557ZM198.189 102.103C203.614 103.215 213.21 106.693 219.608 109.892C242.973 121.438 256.325 140.216 263.696 171.653C265.643 180.138 268.842 193.214 270.789 200.864C272.736 208.515 274.544 216.026 274.962 217.695C275.518 220.199 274.405 221.173 266.756 224.094C262.027 226.041 252.57 229.38 245.894 231.327L233.655 235.083V353.875C233.655 419.113 233.238 472.945 232.542 473.363C231.986 473.641 229.204 474.336 226.284 474.893L221.138 475.866V236.196L209.038 237.309C193.044 238.7 160.081 238.7 142.975 237.309L129.345 236.057V475.449L123.503 473.641L117.523 471.972L117.106 353.04L116.827 234.109L99.0252 228.267C89.2896 224.929 80.3884 221.729 79.2758 221.034C77.6068 219.921 77.7459 218.53 80.3884 210.323C82.0574 205.176 84.6999 194.605 86.2298 186.954C92.7666 154.822 98.6079 140.634 110.986 127.558C131.292 105.719 166.618 95.4258 198.189 102.103ZM94.8528 262.764C100.416 264.433 106.118 266.102 107.509 266.381C109.734 267.076 109.873 273.057 109.873 367.924C109.873 449.437 109.595 468.633 108.065 468.633C107.092 468.633 100.833 465.851 94.1574 462.513C60.2218 445.542 37.6907 416.192 30.0413 379.331C27.5379 367.09 27.1207 341.634 29.2069 328.141C32.5448 307.554 43.5322 280.013 56.8839 259.008L62.4471 250.384L73.5735 255.113C79.693 257.756 89.2896 261.095 94.8528 262.764ZM296.519 260.956C318.633 297.261 325.865 320.769 325.865 355.266C325.865 378.496 323.501 390.459 315.712 407.29C307.646 424.399 291.373 443.456 275.101 454.445C267.73 459.453 246.589 470.024 243.808 470.024C242.278 470.024 242 451.107 242 368.759V267.493L255.908 262.903C263.696 260.399 274.127 256.644 279.273 254.418C284.419 252.192 288.87 250.384 289.287 250.384C289.704 250.245 292.903 255.114 296.519 260.956ZM180.804 274.449C195.686 274.449 209.316 273.892 211.124 273.336L214.184 272.362L213.906 375.018L213.488 477.675L200.276 479.483C187.341 481.152 158.83 480.735 144.644 478.648L138.385 477.675L137.968 375.018L137.689 272.362L145.617 273.336C150.068 273.892 165.923 274.449 180.804 274.449Z" fill="#389E0D"/>
<path d="M59.2482 4.87118C48.2608 6.95769 31.9885 12.2435 31.9885 13.4954C31.9885 16.5557 50.208 45.3496 56.7447 52.5828C74.1298 72.196 100.694 83.4632 125.033 81.5158C134.491 80.8203 155.77 75.2562 155.77 73.4479C155.77 72.8915 152.015 68.9967 147.286 64.8237C138.524 56.8949 115.437 44.2367 90.8194 33.9433C83.7263 31.0222 78.1632 28.2402 78.4413 27.962C78.8586 27.6838 84.1436 28.5183 90.4022 29.7703C119.748 35.7516 147.147 49.5226 167.592 68.5794C172.042 72.8915 176.354 76.369 176.91 76.369C177.466 76.369 177.606 74.2825 177.049 71.7787C170.93 40.2028 143.253 12.6608 109.873 4.87118C98.747 2.22826 72.4608 2.22826 59.2482 4.87118Z" fill="#389E0D"/>
</svg>
